<?xml version="1.0" encoding="UTF-8"?>
<svg version="1.1" xmlns="http://www.w3.org/2000/svg" width="1881" height="836">
<path d="M0 0 C620.73 0 1241.46 0 1881 0 C1881 275.88 1881 551.76 1881 836 C1260.27 836 639.54 836 0 836 C0 560.12 0 284.24 0 0 Z " fill="#FDFDFD" transform="translate(0,0)"/>
<path d="M0 0 C13.95608608 12.29571571 23.89622442 26.60056926 29.6171875 44.328125 C29.87693359 45.10865234 30.13667969 45.88917969 30.40429688 46.69335938 C33.21445216 55.25453014 33.61255382 62.88274313 33.6171875 71.890625 C33.62943359 73.128125 33.64167969 74.365625 33.65429688 75.640625 C33.66513806 82.43443385 33.30016111 88.60157092 31.4296875 95.140625 C31.22988281 95.96691406 31.03007813 96.79320312 30.82421875 97.64453125 C23.99265479 121.80717694 8.96466272 143.35890781 -12.9296875 156.17578125 C-36.4577607 169.19336273 -63.05675385 172.9271484 -89.32421875 166.17578125 C-103.44177334 161.80360845 -115.63119359 155.13226117 -126.5703125 145.140625 C-127.33730469 144.45484375 -128.10429687 143.7690625 -128.89453125 143.0625 C-142.74331875 130.01128665 -151.4101999 113.31770505 -156.5703125 95.140625 C-156.79589844 94.37105469 -157.02148438 93.60148438 -157.25390625 92.80859375 C-162.96957545 69.66998811 -156.34210344 43.29354905 -144.5703125 23.140625 C-129.735584 0.04464051 -107.92295648 -15.14089455 -81.1953125 -21.30078125 C-52.79711121 -27.34385087 -22.06474936 -18.46953461 0 0 Z " fill="#FAFCFE" transform="translate(516.5703125,460.859375)"/>
<path d="M0 0 C1.43352212 0.00015908 2.86704998 0.00585132 4.30053711 0.01586914 C5.43041298 0.01799156 5.43041298 0.01799156 6.58311462 0.02015686 C8.99807646 0.02577163 11.41294687 0.03832656 13.82788086 0.05102539 C15.46134307 0.05603849 17.09480672 0.06060173 18.72827148 0.06469727 C22.74067671 0.07574585 26.75301326 0.09302033 30.76538086 0.11352539 C32.31221924 3.20720215 31.90227824 6.46923874 31.8923645 9.864151 C31.89392449 10.67369765 31.89548448 11.4832443 31.89709175 12.31732267 C31.90109811 15.04506275 31.89791351 17.77274773 31.89477539 20.50048828 C31.89612958 22.44987521 31.89790961 24.39926189 31.90008545 26.34864807 C31.90465736 31.65421905 31.90287129 36.95977066 31.89970636 42.265342 C31.89718188 47.80624397 31.89952052 53.34714423 31.90109253 58.88804626 C31.90291381 68.19343363 31.90050883 77.49881306 31.89575195 86.80419922 C31.89030782 97.57875772 31.89207326 108.35329731 31.89757836 119.12785536 C31.90210876 128.36265604 31.90276045 137.59745101 31.90013969 146.83225244 C31.89857672 152.3548825 31.89838374 157.87750364 31.90167618 163.40013313 C31.90455388 168.58993737 31.90258106 173.77971709 31.89678192 178.96951866 C31.89545385 180.87998031 31.89584923 182.790444 31.89804459 184.70090485 C31.90075421 187.29725939 31.89737731 189.89353405 31.8923645 192.48988342 C31.89459522 193.2560141 31.89682595 194.02214479 31.89912426 194.81149155 C31.87953081 199.99937544 31.87953081 199.99937544 30.76538086 201.11352539 C28.3287764 201.21435303 25.92113385 201.25325142 23.48413086 201.24633789 C22.755448 201.24729462 22.02676514 201.24825134 21.27600098 201.24923706 C19.73258376 201.24991875 18.18916369 201.24806527 16.64575195 201.24389648 C14.27540686 201.23854801 11.90525127 201.24384181 9.53491211 201.25024414 C8.03881794 201.24958336 6.54272389 201.24830219 5.04663086 201.24633789 C3.97632629 201.24937424 3.97632629 201.24937424 2.88439941 201.25247192 C-2.11966723 201.2284773 -2.11966723 201.2284773 -3.23461914 200.11352539 C-3.34316895 198.34229653 -3.38149359 196.5667368 -3.39283752 194.79222107 C-3.40752075 193.06105042 -3.40752075 193.06105042 -3.42250061 191.29490662 C-3.42825607 190.01745071 -3.43401154 188.73999481 -3.43994141 187.42382812 C-3.44951478 186.073941 -3.45952453 184.72405691 -3.46994019 183.37417603 C-3.49705397 179.69875196 -3.51802835 176.02331497 -3.53794217 172.34784579 C-3.55976194 168.5107681 -3.58717018 164.67373054 -3.61399841 160.83668518 C-3.66397968 153.56584232 -3.70889828 146.29497725 -3.75202078 139.02409083 C-3.80134681 130.74850337 -3.85628207 122.47295616 -3.91170037 114.1974076 C-4.0256038 97.16948405 -4.13242454 80.14152316 -4.23461914 63.11352539 C-7.04299713 67.25322803 -9.85056781 71.39347672 -12.6574707 75.53417969 C-13.60745771 76.93536261 -14.55764495 78.3364098 -15.50805664 79.73730469 C-20.94961706 87.75841838 -26.36776445 95.79399527 -31.73736858 103.86348057 C-35.26158684 109.15909446 -38.81444256 114.43492273 -42.37915039 119.70336914 C-43.64548096 121.57768126 -44.91175543 123.45203128 -46.17797852 125.32641602 C-48.12357858 128.2054899 -50.06960855 131.08427024 -52.01660156 133.96240234 C-53.9303622 136.79188588 -55.84238128 139.62253977 -57.75415039 142.45336914 C-58.33131302 143.30559555 -58.90847565 144.15782196 -59.50312805 145.03587341 C-62.85373993 150.00034841 -66.09011652 155.01584727 -69.23461914 160.11352539 C-72.21680113 159.80282838 -73.81106141 159.53756172 -75.96313477 157.38305664 C-76.51678711 156.57223633 -77.07043945 155.76141602 -77.64086914 154.92602539 C-78.32793945 153.92829102 -79.01500977 152.93055664 -79.72290039 151.90258789 C-80.56209005 150.64086191 -81.39911282 149.37769347 -82.23461914 148.11352539 C-82.74492676 147.3475 -83.25523437 146.58147461 -83.78100586 145.79223633 C-88.78895874 138.26796499 -93.73374639 130.70256393 -98.68041992 123.13793945 C-107.88714491 109.00366183 -107.88714491 109.00366183 -117.65063477 95.25366211 C-119.9589515 92.13487289 -122.10467694 88.91810947 -124.23461914 85.67602539 C-125.07833652 84.40126422 -125.92208702 83.12652496 -126.76586914 81.85180664 C-127.17708008 81.22870605 -127.58829102 80.60560547 -128.01196289 79.96362305 C-129.91045815 77.09086006 -131.82296265 74.22754699 -133.73461914 71.36352539 C-135.56795247 68.61352539 -137.40128581 65.86352539 -139.23461914 63.11352539 C-139.23885108 63.81866492 -139.24308302 64.52380445 -139.2474432 65.25031185 C-139.35060863 82.38339982 -139.45922491 99.51644447 -139.5739584 116.64945889 C-139.62930955 124.9347484 -139.68279459 133.22004222 -139.73193359 141.50537109 C-139.77475232 148.7242485 -139.82102437 155.94309394 -139.87149769 163.16192204 C-139.89811733 166.98658917 -139.92297078 170.81124989 -139.94369316 174.6359539 C-139.96323011 178.23181431 -139.98736486 181.82761379 -140.01511002 185.42341995 C-140.02899003 187.38056135 -140.03791981 189.33773586 -140.04673767 191.29490662 C-140.0614209 193.02607727 -140.0614209 193.02607727 -140.07640076 194.79222107 C-140.08285331 195.80158439 -140.08930586 196.8109477 -140.09595394 197.85089779 C-140.23461914 200.11352539 -140.23461914 200.11352539 -141.23461914 201.11352539 C-143.6712236 201.21435303 -146.07886615 201.25325142 -148.51586914 201.24633789 C-149.244552 201.24729462 -149.97323486 201.24825134 -150.72399902 201.24923706 C-152.26741624 201.24991875 -153.81083631 201.24806527 -155.35424805 201.24389648 C-157.72459314 201.23854801 -160.09474873 201.24384181 -162.46508789 201.25024414 C-163.96118206 201.24958336 -165.45727611 201.24830219 -166.95336914 201.24633789 C-168.02367371 201.24937424 -168.02367371 201.24937424 -169.11560059 201.25247192 C-174.11966723 201.2284773 -174.11966723 201.2284773 -175.23461914 200.11352539 C-175.33459796 197.5612493 -175.36902913 195.03596947 -175.36160278 192.4831543 C-175.36316277 191.67446207 -175.36472276 190.86576984 -175.36633003 190.03257179 C-175.37034339 187.30172571 -175.36714909 184.57093446 -175.36401367 181.84008789 C-175.36536756 179.89084846 -175.36714743 177.94160929 -175.36932373 175.99237061 C-175.3738995 170.68260832 -175.37210792 165.37286537 -175.36894464 160.06310272 C-175.36642178 154.51952561 -175.36875837 148.97595022 -175.37033081 143.43237305 C-175.37215272 134.12100933 -175.36974563 124.80965353 -175.36499023 115.49829102 C-175.35954757 104.7163689 -175.36131022 93.93446568 -175.36681664 83.15254402 C-175.37134716 73.91351725 -175.37199862 64.67449619 -175.36937797 55.43546867 C-175.36781486 49.90947026 -175.36762237 44.38348076 -175.37091446 38.85748291 C-175.37379228 33.66358805 -175.37181912 28.4697177 -175.3660202 23.2758255 C-175.36469212 21.36375214 -175.36508752 19.45167674 -175.36728287 17.53960419 C-175.36999251 14.94100663 -175.36661554 12.34248888 -175.36160278 9.74389648 C-175.3638335 8.97708368 -175.36606423 8.21027088 -175.36836255 7.42022133 C-175.34876899 2.22767524 -175.34876899 2.22767524 -174.23461914 1.11352539 C-169.41492729 0.60276807 -164.59793373 0.41400965 -159.75488281 0.26904297 C-158.13121735 0.20759303 -156.50832285 0.11919753 -154.88769531 0.00244141 C-141.63144191 -0.93385368 -141.63144191 -0.93385368 -136.34936523 3.578125 C-134.06000833 6.48399817 -132.27180311 9.65229622 -130.49630737 12.89016724 C-128.67024647 16.1080679 -126.59776586 19.14246196 -124.53005981 22.20872498 C-122.78620888 24.79719947 -121.07051364 27.40243774 -119.36132812 30.01391602 C-115.59888116 35.75919719 -111.82571642 41.4973769 -108.05102539 47.23461914 C-107.40488785 48.21715668 -106.75875031 49.19969421 -106.09303284 50.21200562 C-99.87269164 59.66925703 -93.63879624 69.11739577 -87.37573242 78.54641724 C-86.24621497 80.24844286 -85.11842743 81.95161787 -83.99243164 83.65597534 C-82.43043468 86.01978613 -80.86261187 88.37962481 -79.29321289 90.73852539 C-78.60919655 91.77765831 -78.60919655 91.77765831 -77.91136169 92.83778381 C-75.60873053 96.28393703 -73.31583491 99.29723074 -70.23461914 102.11352539 C-69.97052246 101.39366455 -69.70642578 100.67380371 -69.43432617 99.93212891 C-68.20735608 97.04947328 -66.76111844 94.6303907 -65.03930664 92.01586914 C-64.40968018 91.05527588 -63.78005371 90.09468262 -63.13134766 89.10498047 C-62.46417725 88.09717529 -61.79700684 87.08937012 -61.10961914 86.05102539 C-60.42891357 85.01550537 -59.74820801 83.97998535 -59.046875 82.91308594 C-57.11449847 79.97652952 -55.17609338 77.0440726 -53.23461914 74.11352539 C-52.78650879 73.43644531 -52.33839844 72.75936523 -51.87670898 72.06176758 C-49.6743681 68.73780254 -47.45667101 65.42433318 -45.23461914 62.11352539 C-43.9006763 60.11393186 -42.56735982 58.11392036 -41.23461914 56.11352539 C-40.60378418 55.16751465 -39.97294922 54.22150391 -39.32299805 53.24682617 C-38.06384911 51.35766117 -36.80553366 49.46793972 -35.54882812 47.57714844 C-29.73965737 38.84360024 -23.87575398 30.14722668 -18.00488281 21.45507812 C-16.27506817 18.89336978 -14.5468388 16.33059629 -12.81860352 13.76782227 C-11.71909112 12.13950157 -10.61948531 10.51124394 -9.51977539 8.88305664 C-9.00318863 8.11653275 -8.48660187 7.35000885 -7.95436096 6.56025696 C-7.47973923 5.85829697 -7.00511749 5.15633698 -6.51611328 4.43310547 C-6.09834122 3.81421951 -5.68056915 3.19533356 -5.25013733 2.55769348 C-3.5389442 0.12420628 -3.5389442 0.12420628 0 0 Z " fill="#062979" transform="translate(815.234619140625,314.886474609375)"/>
<path d="M0 0 C4.37823917 -0.04938149 8.75633146 -0.0857104 13.13476562 -0.10986328 C14.6247032 -0.11993043 16.11462097 -0.13358518 17.60449219 -0.15087891 C19.74419028 -0.17509653 21.88362753 -0.18647564 24.0234375 -0.1953125 C25.31169434 -0.20578613 26.59995117 -0.21625977 27.92724609 -0.22705078 C31 0 31 0 33 2 C33.19538661 4.61851781 33.26487619 7.13110093 33.24723816 9.75062561 C33.24965257 10.56017226 33.25206699 11.36971891 33.25455457 12.20379728 C33.26021546 14.93159983 33.25151054 17.65917066 33.24291992 20.38696289 C33.2439922 22.33635014 33.24593008 24.28573707 33.24867249 26.23512268 C33.25353227 31.5407186 33.24585129 36.84623081 33.23571944 42.15181661 C33.22695854 47.69271712 33.228696 53.23361485 33.2290802 58.77452087 C33.22814274 68.07991951 33.21944734 77.3852856 33.20581055 86.69067383 C33.19007956 97.46523421 33.18481255 108.23975893 33.1855461 119.01432997 C33.18615544 129.35987919 33.18105894 139.70541673 33.17275429 150.05096245 C33.16921418 154.46284514 33.16739 158.8747237 33.16686058 163.28660774 C33.16585955 168.4764163 33.15978267 173.66619466 33.14969444 178.85599327 C33.14676183 180.76645345 33.1455456 182.67691711 33.14612198 184.58737946 C33.14660906 187.18373826 33.1409928 189.78001114 33.13371277 192.37635803 C33.13526137 193.14248871 33.13680997 193.9086194 33.1384055 194.69796616 C33.11417858 199.88582142 33.11417858 199.88582142 32 201 C29.63601532 201.1007812 27.30188689 201.13973215 24.9375 201.1328125 C24.23101318 201.13376923 23.52452637 201.13472595 22.79663086 201.13571167 C21.30029207 201.13639333 19.80395033 201.13454005 18.30761719 201.13037109 C16.00969843 201.12502257 13.71197514 201.13031651 11.4140625 201.13671875 C9.96354123 201.13605797 8.51302009 201.1347768 7.0625 201.1328125 C6.0250061 201.13584885 6.0250061 201.13584885 4.96655273 201.13894653 C0.11495224 201.11495224 0.11495224 201.11495224 -1 200 C-1.15582303 198.65984779 -1.25044142 197.31241097 -1.31640625 195.96484375 C-1.35830078 195.15595703 -1.40019531 194.34707031 -1.44335938 193.51367188 C-1.48267578 192.66353516 -1.52199219 191.81339844 -1.5625 190.9375 C-1.60568359 190.08349609 -1.64886719 189.22949219 -1.69335938 188.34960938 C-1.79976702 186.23327963 -1.90041731 184.11666187 -2 182 C-2.54527344 182.65226563 -3.09054687 183.30453125 -3.65234375 183.9765625 C-13.38800955 195.25994953 -25.13919239 202.51655252 -40.2097168 204.25488281 C-60.65866555 205.61332578 -77.08077069 200.11608534 -92.546875 186.80859375 C-107.24576768 173.02221622 -114.75795681 153.23215414 -115.40283203 133.34667969 C-115.65748952 113.35427356 -109.87426825 94.78881744 -96.546875 79.53125 C-84.58961589 67.64734831 -69.96767822 58.79010581 -52.75439453 58.48095703 C-51.80419434 58.48724121 -50.85399414 58.49352539 -49.875 58.5 C-48.87452637 58.50499512 -47.87405273 58.50999023 -46.84326172 58.51513672 C-28.65367096 58.93787925 -15.78354527 66.31791144 -3 79 C-2.67 79.66 -2.34 80.32 -2 81 C-1.98969254 80.01472321 -1.97938507 79.02944641 -1.96876526 78.01431274 C-1.87114647 68.74370198 -1.76842347 59.47316008 -1.66066074 50.20266151 C-1.60541979 45.43623826 -1.55199791 40.66980888 -1.50268555 35.90332031 C-1.45505929 31.3062024 -1.40271711 26.70916047 -1.34705925 22.11213303 C-1.32662781 20.35542052 -1.30791605 18.59868718 -1.29092598 16.84193802 C-1.26689942 14.38754975 -1.23684255 11.93330574 -1.20532227 9.47900391 C-1.1995668 8.74748611 -1.19381134 8.01596832 -1.18788147 7.26228333 C-1.11405216 2.22810432 -1.11405216 2.22810432 0 0 Z " fill="#072A79" transform="translate(1149,315)"/>
<path d="M0 0 C1.44224945 -0.01925285 1.44224945 -0.01925285 2.91363525 -0.03889465 C3.95630554 -0.04628159 4.99897583 -0.05366852 6.07324219 -0.0612793 C7.14378845 -0.06935104 8.21433472 -0.07742279 9.31732178 -0.08573914 C11.58701962 -0.09958782 13.85673836 -0.11030645 16.12646484 -0.11816406 C19.59220069 -0.13535954 23.05697852 -0.17923769 26.52246094 -0.22338867 C28.726881 -0.23351696 30.93130918 -0.24203264 33.13574219 -0.2487793 C34.17031555 -0.26628738 35.20488892 -0.28379547 36.27081299 -0.30183411 C42.17616574 -0.28409839 45.73102238 0.14354143 50.37011719 4.17700195 C50.90935318 4.61488037 51.44858917 5.05275879 52.00416565 5.50390625 C53.85946297 7.7763807 53.7326903 9.19649335 53.71069336 12.10742188 C53.71046677 13.10823288 53.71024017 14.10904388 53.71000671 15.1401825 C53.69452286 16.2183876 53.679039 17.29659271 53.66308594 18.4074707 C53.65884109 19.51302811 53.65459625 20.61858551 53.65022278 21.75764465 C53.63341156 25.29351007 53.59575404 28.8288084 53.55761719 32.36450195 C53.54257355 34.75967602 53.52888459 37.15485901 53.51660156 39.55004883 C53.48350004 45.42589381 53.43327612 51.30140737 53.37011719 57.17700195 C54.27094528 57.16034737 54.27094528 57.16034737 55.18997192 57.14335632 C61.45169167 57.03256903 67.71313215 56.95725443 73.97558594 56.90234375 C76.31131299 56.87723015 78.64696169 56.84313267 80.98242188 56.79980469 C84.34362133 56.73901704 87.70378004 56.71075983 91.06542969 56.6887207 C92.10627716 56.66291428 93.14712463 56.63710785 94.21951294 56.61051941 C102.33358212 56.60739435 102.33358212 56.60739435 105.95166016 59.45751953 C109.31911275 63.24411901 110.62504202 65.78068277 110.59716797 70.85375977 C110.59694138 72.23473846 110.59694138 72.23473846 110.59671021 73.64361572 C110.58638763 74.62916443 110.57606506 75.61471313 110.56542969 76.63012695 C110.56259979 77.64548523 110.5597699 78.66084351 110.55685425 79.70697021 C110.5456672 82.94710112 110.5205651 86.18695472 110.49511719 89.42700195 C110.48508549 91.62491463 110.47595997 93.82283163 110.46777344 96.02075195 C110.4457327 101.40626309 110.4122697 106.79161271 110.37011719 112.17700195 C109.80502441 112.43916504 109.23993164 112.70132813 108.65771484 112.97143555 C106.10139463 114.16045838 103.5482449 115.35614041 100.99511719 116.55200195 C99.6609375 117.17075195 99.6609375 117.17075195 98.29980469 117.80200195 C97.44902344 118.20161133 96.59824219 118.6012207 95.72167969 119.01293945 C94.93615723 119.3795166 94.15063477 119.74609375 93.34130859 120.1237793 C91.21772836 121.13576669 91.21772836 121.13576669 89.37011719 123.17700195 C86.71817291 123.35204157 84.16939565 123.40869798 81.51855469 123.37231445 C80.48952026 123.36929321 80.48952026 123.36929321 79.43969727 123.36621094 C76.87476932 123.35573953 74.3099366 123.32781692 71.74511719 123.30200195 C63.14449219 123.24012695 63.14449219 123.24012695 54.37011719 123.17700195 C54.37011719 135.05700195 54.37011719 146.93700195 54.37011719 159.17700195 C53.71011719 159.17700195 53.05011719 159.17700195 52.37011719 159.17700195 C52.09941406 160.0380957 51.82871094 160.89918945 51.54980469 161.78637695 C50.38654506 165.12978541 49.03915487 168.24292424 47.49511719 171.42700195 C47.00269531 172.4634082 46.51027344 173.49981445 46.00292969 174.56762695 C44.21493955 177.42498918 43.42492833 177.97994132 40.37011719 179.17700195 C38.21437073 179.43769836 38.21437073 179.43769836 35.86450195 179.45166016 C34.9800087 179.46119217 34.09551544 179.47072418 33.18421936 179.48054504 C32.23622971 179.47963364 31.28824005 179.47872223 30.31152344 179.4777832 C29.33021957 179.48206833 28.34891571 179.48635345 27.33787537 179.49076843 C25.26423921 179.49650681 23.19058292 179.49701562 21.11694336 179.49267578 C17.94772938 179.48951702 14.77945008 179.51297729 11.61035156 179.53833008 C9.5940767 179.54060326 7.57779932 179.54130648 5.56152344 179.5402832 C4.1425753 179.55409782 4.1425753 179.55409782 2.69496155 179.56819153 C-3.33555965 179.52587412 -6.71971318 178.67143307 -11.37988281 174.67700195 C-13.74408577 171.83995841 -13.75285411 169.04529581 -13.7434082 165.52197266 C-13.74333267 164.58122391 -13.74325714 163.64047516 -13.74317932 162.67121887 C-13.73801804 161.6586351 -13.73285675 160.64605133 -13.72753906 159.6027832 C-13.72612411 158.56381393 -13.72470917 157.52484467 -13.72325134 156.45439148 C-13.71764937 153.13273247 -13.70509653 149.81114062 -13.69238281 146.48950195 C-13.68736807 144.23885188 -13.68280512 141.98820076 -13.67871094 139.73754883 C-13.6676793 134.21734358 -13.65093925 128.69717757 -13.62988281 123.17700195 C-14.49312668 123.19032562 -14.49312668 123.19032562 -15.37380981 123.20391846 C-21.3760584 123.29257097 -27.37812029 123.35281032 -33.38085938 123.39672852 C-35.61954302 123.41681511 -37.85817439 123.44408975 -40.09667969 123.47875977 C-43.3188163 123.52740659 -46.54025783 123.5500007 -49.76269531 123.56762695 C-50.75979523 123.58827209 -51.75689514 123.60891724 -52.78421021 123.63018799 C-59.9702346 123.63249636 -63.03180336 122.27879458 -68.44238281 117.61450195 C-70.72607513 114.8500323 -70.76528342 112.04103142 -70.80688477 108.6171875 C-70.81972 107.6958049 -70.83255524 106.7744223 -70.84577942 105.82511902 C-70.85316635 104.83135757 -70.86055328 103.83759613 -70.86816406 102.8137207 C-70.87623581 101.78898148 -70.88430756 100.76424225 -70.8926239 99.70845032 C-70.90645723 97.5388864 -70.91718275 95.36930079 -70.92504883 93.19970703 C-70.94226234 89.88768137 -70.98615606 86.57665376 -71.03027344 83.26489258 C-71.04040057 81.15617595 -71.04891661 79.04745085 -71.05566406 76.9387207 C-71.07317215 75.95103195 -71.09068024 74.9633432 -71.10871887 73.94572449 C-71.09069261 68.21023951 -70.72251019 64.55227964 -66.62988281 60.17700195 C-60.83499912 55.75213557 -56.01715964 55.63456293 -48.88378906 55.78637695 C-47.87267563 55.79203674 -46.86156219 55.79769653 -45.81980896 55.80352783 C-42.61017258 55.82580674 -39.40167822 55.87598818 -36.19238281 55.92700195 C-34.00815421 55.94707788 -31.82390801 55.96532673 -29.63964844 55.98168945 C-24.30267436 56.02564347 -18.9663602 56.09247015 -13.62988281 56.17700195 C-13.65319923 55.32041992 -13.65319923 55.32041992 -13.67698669 54.4465332 C-13.83244052 48.47663182 -13.93766772 42.50730953 -14.0144043 36.53588867 C-14.04950115 34.31071603 -14.09719224 32.08570361 -14.15795898 29.86108398 C-14.24335138 26.6534872 -14.28267951 23.44803211 -14.31347656 20.23950195 C-14.34960556 19.25272461 -14.38573456 18.26594727 -14.42295837 17.24926758 C-14.42667035 10.64718336 -12.97021423 7.35399586 -8.33241272 2.63574219 C-5.49577181 0.20528724 -3.65471762 0.04242959 0 0 Z " fill="#21D0C5" transform="translate(303.6298828125,314.822998046875)"/>
<path d="M0 0 C4.7025 0.061875 9.405 0.12375 14.25 0.1875 C14.25 10.7475 14.25 21.3075 14.25 32.1875 C8.43375 32.31125 8.43375 32.31125 2.5 32.4375 C-13.32684724 32.98426965 -25.20412975 35.98591118 -36.5 47.875 C-44.98045018 58.21994632 -48.06522679 69.70604916 -48.01742554 82.80683899 C-48.02195665 83.73302841 -48.02648776 84.65921783 -48.03115618 85.61347359 C-48.04374332 88.69459732 -48.0421835 91.77554298 -48.04052734 94.85668945 C-48.0465161 97.07497381 -48.05332245 99.29325609 -48.06088257 101.51153564 C-48.07851337 107.52195851 -48.08323669 113.53232439 -48.08451414 119.54277062 C-48.08593784 123.30166923 -48.09021156 127.06055345 -48.09550858 130.81944847 C-48.1130453 143.26711172 -48.12235003 155.71474732 -48.12084763 168.16242144 C-48.12072776 169.16713147 -48.12072776 169.16713147 -48.12060547 170.19213867 C-48.12052371 170.86277099 -48.12044195 171.5334033 -48.12035771 172.22435781 C-48.11954505 183.08920269 -48.13868196 193.95390886 -48.1668822 204.81871364 C-48.19566565 215.99714211 -48.20905392 227.17551989 -48.20769465 238.35399026 C-48.20718568 244.62084081 -48.21283353 250.88753426 -48.23405075 257.15435219 C-48.25346826 263.05024012 -48.25353335 268.94582161 -48.23901749 274.84172058 C-48.23693274 276.99913164 -48.24161019 279.15656207 -48.2537384 281.31394005 C-48.34344425 298.38334764 -46.75440618 312.2905074 -34.6484375 325.4765625 C-26.11602713 333.52657511 -15.82288632 338.4087431 -3.9858551 338.4659729 C-3.02133239 338.4746615 -3.02133239 338.4746615 -2.03732437 338.48352563 C0.09683275 338.50040206 2.23077201 338.50339132 4.36499023 338.50634766 C5.90295433 338.5156544 7.44091341 338.52582418 8.97886658 338.53678894 C13.13946578 338.56401894 17.30003125 338.57921753 21.46069598 338.59221697 C25.81425503 338.60787822 30.16774552 338.63465887 34.52125549 338.6602478 C42.75875052 338.70698265 50.99625851 338.74375235 59.23381811 338.77692068 C68.6147392 338.81517951 77.99559133 338.86457981 87.37645423 338.91490483 C106.66758565 339.01814593 125.95875918 339.10743172 145.25 339.1875 C145.46092285 339.73575439 145.6718457 340.28400879 145.88916016 340.84887695 C146.87667718 343.40232914 147.87578856 345.95110246 148.875 348.5 C149.20628906 349.36173828 149.53757812 350.22347656 149.87890625 351.11132812 C152.50369287 357.77234323 155.70317105 363.97195505 159.25 370.1875 C136.83959006 370.2811859 114.42921269 370.35159764 92.01864624 370.39474869 C81.61164785 370.41532227 71.20477155 370.44334272 60.79785156 370.48925781 C51.72095019 370.5292856 42.6441373 370.55497058 33.56715012 370.56385398 C28.76657905 370.56904187 23.96626099 370.58112526 19.16577148 370.61042023 C14.63494605 370.63784204 10.10447461 370.64589173 5.57357407 370.63993073 C3.92256614 370.64101913 2.27154471 370.64881206 0.62060928 370.6643219 C-13.349836 370.78898128 -27.00596477 369.13373432 -39.4375 362.1875 C-40.1375415 361.80360107 -40.83758301 361.41970215 -41.55883789 361.02416992 C-54.17869838 353.77813139 -63.00672885 343.32290286 -70.75 331.1875 C-71.44609375 330.09824219 -72.1421875 329.00898437 -72.859375 327.88671875 C-75.26145335 323.61219625 -76.3104721 319.05254017 -77.4375 314.3125 C-77.85521987 312.6060699 -78.27564455 310.90029885 -78.69921875 309.1953125 C-78.87799561 308.44910645 -79.05677246 307.70290039 -79.2409668 306.93408203 C-79.60155003 305.17561282 -79.60155003 305.17561282 -80.75 304.1875 C-80.8569191 301.16198746 -80.89778218 298.15902362 -80.89717102 295.13278198 C-80.90084771 294.17062558 -80.9045244 293.20846918 -80.9083125 292.21715653 C-80.91939834 288.96621758 -80.92320157 285.71531054 -80.92700195 282.46435547 C-80.93326332 280.14374692 -80.93990982 277.82313938 -80.94691467 275.50253296 C-80.96436441 269.17534401 -80.974889 262.84816265 -80.9831202 256.52095556 C-80.98826597 252.56643002 -80.99434215 248.61190684 -81.00063133 244.65738297 C-81.01751368 233.70109538 -81.03214421 222.74480989 -81.03938007 211.78851128 C-81.04128992 208.94282912 -81.04321025 206.09714697 -81.04516602 203.25146484 C-81.04589163 202.19056561 -81.04589163 202.19056561 -81.0466319 201.10823406 C-81.05491251 189.67909541 -81.08021073 178.25006209 -81.11274669 166.82096933 C-81.14590583 155.07664427 -81.16383725 143.33237251 -81.16702431 131.58800042 C-81.16937063 124.9984352 -81.17827558 118.409036 -81.20348549 111.81951523 C-81.22685705 105.60938477 -81.23096283 99.39952851 -81.22072411 93.18936539 C-81.22023071 90.91872493 -81.22649277 88.64807058 -81.24028015 86.37747192 C-81.38624013 60.89812926 -75.51313173 40.37396499 -57.375 21.4375 C-41.18920866 5.96740691 -22.14463497 -0.41512006 0 0 Z " fill="#0D65FD" transform="translate(199.75,227.8125)"/>
<path d="M0 0 C14.36357565 11.19368309 25.50493542 28.5414558 27.83203125 46.83203125 C29.78450283 68.67860509 25.37676884 89.52957111 11.08203125 106.70703125 C3.58142123 114.50178284 -5.28258586 120.51210316 -15.16796875 124.83203125 C-16.81539062 125.58806641 -16.81539062 125.58806641 -18.49609375 126.359375 C-36.49627934 133.57859837 -58.01060088 132.61053159 -75.73144531 125.3503418 C-81.46657589 122.85767481 -86.33705307 119.77431695 -91.16796875 115.83203125 C-92.02132813 115.14109375 -92.8746875 114.45015625 -93.75390625 113.73828125 C-106.6617575 102.72978349 -116.89408096 85.88542957 -118.45117188 68.70776367 C-118.56859581 65.43108844 -118.57774316 62.17298577 -118.54296875 58.89453125 C-118.55457031 57.80462891 -118.56617188 56.71472656 -118.578125 55.59179688 C-118.50672046 35.56282406 -109.95484728 19.94962382 -96.41796875 5.70703125 C-88.74583295 -1.77911337 -80.23904872 -6.66563795 -70.16796875 -10.16796875 C-68.81058594 -10.72677734 -68.81058594 -10.72677734 -67.42578125 -11.296875 C-44.88793779 -19.69734393 -19.25481898 -13.176849 0 0 Z " fill="#1BD3C8" transform="translate(1636.16796875,388.16796875)"/>
<path d="M0 0 C2.15414723 0.96670211 4.25990822 1.64278905 6.5234375 2.3046875 C15.93141845 5.38517684 26.29354924 10.78937303 33.2109375 17.9921875 C33.97216797 19.85546875 33.97216797 19.85546875 34.2109375 21.9921875 C33.21044922 23.89575195 33.21044922 23.89575195 31.640625 25.85546875 C31.0734375 26.57798828 30.50625 27.30050781 29.921875 28.04492188 C29.31601563 28.79064453 28.71015625 29.53636719 28.0859375 30.3046875 C26.91567747 31.77916335 25.7463945 33.25441524 24.578125 34.73046875 C24.01061523 35.44154785 23.44310547 36.15262695 22.85839844 36.88525391 C20.53875651 39.85183806 18.37054982 42.90760915 16.2109375 45.9921875 C12.19444388 45.45055876 10.034314 44.32787055 6.8984375 41.8046875 C0.27864371 36.96676302 -7.09313786 34.59237961 -14.7890625 31.9921875 C-15.67851563 31.61578125 -16.56796875 31.239375 -17.484375 30.8515625 C-22.75406473 29.48119401 -27.99175122 29.58238376 -33.4140625 29.5546875 C-34.52652344 29.52181641 -35.63898438 29.48894531 -36.78515625 29.45507812 C-46.17009635 29.39498829 -54.59257895 31.68468001 -62.2890625 37.2421875 C-66.40497421 41.76969038 -68.92438561 46.87949214 -69.2890625 53.0546875 C-68.51228266 59.17182874 -66.47676455 63.1779078 -62.2890625 67.6796875 C-51.45321268 75.67948774 -36.49239469 77.91780677 -23.64453125 80.984375 C-2.24491447 86.11795439 21.08844559 92.28696318 33.66674805 111.97631836 C41.36766659 124.99963933 43.26930217 140.30327124 40.1484375 155.0546875 C35.79462707 170.41624506 27.17730888 180.35402741 14.2109375 188.9921875 C13.50195312 189.46785156 12.79296875 189.94351563 12.0625 190.43359375 C7.36797302 193.30247135 2.42336649 195.06950183 -2.7890625 196.7421875 C-3.44156982 196.95319092 -4.09407715 197.16419434 -4.76635742 197.3815918 C-31.36999437 205.45645333 -67.40947208 200.65591004 -91.9921875 188.39453125 C-99.54665992 184.14271921 -106.6449134 179.1363366 -112.7890625 172.9921875 C-112.42580346 169.6605581 -110.89666831 167.3757054 -109.0234375 164.65625 C-108.46269531 163.83898437 -107.90195313 163.02171875 -107.32421875 162.1796875 C-106.73511719 161.3340625 -106.14601563 160.4884375 -105.5390625 159.6171875 C-104.96542969 158.77929688 -104.39179687 157.94140625 -103.80078125 157.078125 C-100.65663568 152.52305306 -97.41363438 148.175434 -93.7890625 143.9921875 C-90.39894663 144.57694548 -88.83366623 145.65150642 -86.4140625 148.0546875 C-68.67559921 164.02258329 -46.55725961 166.90875408 -23.55761719 166.18017578 C-14.41998887 165.55971954 -6.04996763 161.87807473 0.0234375 154.9296875 C4.46095159 148.97074001 3.78046241 142.14839184 3.2109375 134.9921875 C1.92758206 131.39933983 1.92758206 131.39933983 -0.7890625 128.9921875 C-1.48902344 128.26515625 -1.48902344 128.26515625 -2.203125 127.5234375 C-14.85940215 116.19635841 -37.95547821 114.05181017 -53.91650391 110.24658203 C-72.98449707 105.61599667 -88.6306413 97.74307158 -99.7890625 80.9921875 C-105.95573003 68.69588949 -107.22927194 52.16659508 -103.91796875 38.7890625 C-98.61903491 23.01387586 -87.27935384 10.41572896 -72.58984375 2.75 C-51.94830208 -7.24850064 -21.21742038 -9.65709831 0 0 Z " fill="#1BD3C8" transform="translate(1395.7890625,319.0078125)"/>
<path d="M0 0 C13.97749257 11.70311384 22.62187726 27.96945287 24.75 46.125 C24.88469318 49.73040872 24.88973468 53.3299581 24.875 56.9375 C24.87886719 57.90365234 24.88273438 58.86980469 24.88671875 59.86523438 C24.88478516 61.24098633 24.88478516 61.24098633 24.8828125 62.64453125 C24.88168457 63.48089111 24.88055664 64.31725098 24.87939453 65.17895508 C24.75 67.125 24.75 67.125 23.75 68.125 C22.35856311 68.22043095 20.96231633 68.24688575 19.56761169 68.24525452 C18.21507797 68.24731651 18.21507797 68.24731651 16.83522034 68.24942017 C15.83828659 68.24582489 14.84135284 68.24222961 13.81420898 68.23852539 C12.77043091 68.23867142 11.72665283 68.23881744 10.65124512 68.2389679 C7.18284057 68.23826826 3.71448897 68.23047353 0.24609375 68.22265625 C-2.15144318 68.22079225 -4.5489805 68.21936826 -6.94651794 68.21836853 C-13.27095584 68.21454194 -19.59537094 68.20471046 -25.9197998 68.19366455 C-32.36775402 68.18345345 -38.81571191 68.17887156 -45.26367188 68.17382812 C-57.925791 68.16308832 -70.58789429 68.14620119 -83.25 68.125 C-82.63418351 69.87119865 -82.01342326 71.61565426 -81.390625 73.359375 C-81.04547852 74.33100586 -80.70033203 75.30263672 -80.34472656 76.30371094 C-77.0057809 84.90871897 -71.57565654 91.38426984 -63.3125 95.63671875 C-49.44116682 101.68808785 -35.45963752 101.41727475 -21.25 96.5625 C-15.20966827 94.06007685 -10.82894953 89.68446464 -6.25 85.125 C-2.41497592 86.44580375 0.05706241 88.03850882 3 90.8125 C7.39443403 94.85242507 11.991591 98.52525797 16.75 102.125 C15.57622135 108.49102304 10.625398 111.77183536 5.59375 115.40234375 C-14.30887119 128.88123399 -36.68604317 133.2493796 -60.3125 128.875 C-79.67516862 124.35355522 -96.18938183 113.99299685 -107.25 97.125 C-117.78783182 79.14587463 -121.189057 58.97284516 -116.22509766 38.59521484 C-110.82955779 18.8085836 -98.46912553 3.28733465 -80.76171875 -6.94921875 C-54.7549158 -20.74815647 -23.26340234 -17.82248665 0 0 Z " fill="#072978" transform="translate(991.25,388.875)"/>
<path d="M0 0 C13.95608608 12.29571571 23.89622442 26.60056926 29.6171875 44.328125 C29.87693359 45.10865234 30.13667969 45.88917969 30.40429688 46.69335938 C33.21445216 55.25453014 33.61255382 62.88274313 33.6171875 71.890625 C33.62943359 73.128125 33.64167969 74.365625 33.65429688 75.640625 C33.66513806 82.43443385 33.30016111 88.60157092 31.4296875 95.140625 C31.22988281 95.96691406 31.03007813 96.79320312 30.82421875 97.64453125 C23.99265479 121.80717694 8.96466272 143.35890781 -12.9296875 156.17578125 C-36.4577607 169.19336273 -63.05675385 172.9271484 -89.32421875 166.17578125 C-103.44177334 161.80360845 -115.63119359 155.13226117 -126.5703125 145.140625 C-127.33730469 144.45484375 -128.10429687 143.7690625 -128.89453125 143.0625 C-142.74331875 130.01128665 -151.4101999 113.31770505 -156.5703125 95.140625 C-156.79589844 94.37105469 -157.02148438 93.60148438 -157.25390625 92.80859375 C-162.96957545 69.66998811 -156.34210344 43.29354905 -144.5703125 23.140625 C-129.735584 0.04464051 -107.92295648 -15.14089455 -81.1953125 -21.30078125 C-52.79711121 -27.34385087 -22.06474936 -18.46953461 0 0 Z M-116.4921875 23.24609375 C-125.32708374 33.7418135 -131.22012502 44.85344077 -134.5703125 58.140625 C-134.74393311 58.75768311 -134.91755371 59.37474121 -135.09643555 60.01049805 C-139.05442761 77.80209037 -134.44801076 96.69576724 -125.5078125 112.1484375 C-117.77233378 124.09476149 -108.2824996 133.01804571 -95.6328125 139.515625 C-95.0133374 139.83748779 -94.3938623 140.15935059 -93.75561523 140.4909668 C-83.8873759 145.28498105 -73.69642669 146.70492291 -62.8203125 146.640625 C-61.68505127 146.63490479 -60.54979004 146.62918457 -59.38012695 146.62329102 C-39.28359503 146.19856534 -21.31289619 137.36722199 -7.390625 122.87109375 C-1.55036972 116.01958804 2.64823172 108.26464172 6.4296875 100.140625 C6.88859375 99.15964844 7.3475 98.17867187 7.8203125 97.16796875 C13.80931975 81.49954486 12.24008827 59.86120465 5.953125 44.54296875 C2.48548335 36.90133284 -1.97295872 30.36740008 -7.5703125 24.140625 C-8.34761719 23.22410156 -8.34761719 23.22410156 -9.140625 22.2890625 C-21.92637945 8.21830761 -41.24808818 1.17846039 -59.7421875 -0.07421875 C-80.90611048 -0.7194603 -102.12273336 7.50394785 -116.4921875 23.24609375 Z " fill="#0D8FFD" transform="translate(516.5703125,460.859375)"/>
<path d="M0 0 C4.04142215 -0.11662261 8.08240865 -0.1873935 12.125 -0.25 C13.26710938 -0.28351563 14.40921875 -0.31703125 15.5859375 -0.3515625 C26.35107918 -0.47673857 26.35107918 -0.47673857 31 4 C33.53094701 7.68732798 33.25675037 11.52459704 33.1953125 15.828125 C33.1924826 16.57713074 33.18965271 17.32613647 33.18673706 18.09783936 C33.1755726 20.48205776 33.15047531 22.86589579 33.125 25.25 C33.11496535 26.86978623 33.10584035 28.48957836 33.09765625 30.109375 C33.07564555 34.07306246 33.04114175 38.03646681 33 42 C34.53708618 41.99214478 34.53708618 41.99214478 36.10522461 41.98413086 C39.89395276 41.96608031 43.68267709 41.9545678 47.47143555 41.94506836 C49.11369464 41.94002826 50.75594923 41.93319622 52.39819336 41.92456055 C54.75375479 41.91248074 57.10925709 41.90676861 59.46484375 41.90234375 C60.20339096 41.89718246 60.94193817 41.89202118 61.7028656 41.88670349 C63.46898088 41.8865075 65.23497146 41.93805281 67 42 C68.83034055 43.83034055 68.13042797 46.73211992 68.1328125 49.1875 C68.13410156 50.44304687 68.13539062 51.69859375 68.13671875 52.9921875 C68.13462402 53.64928711 68.1325293 54.30638672 68.13037109 54.98339844 C68.12502234 56.99161335 68.13031691 58.99960459 68.13671875 61.0078125 C68.13542969 62.26335937 68.13414063 63.51890625 68.1328125 64.8125 C68.13168457 65.97394531 68.13055664 67.13539063 68.12939453 68.33203125 C68 71 68 71 67 72 C64.40640678 72.08851529 61.83960309 72.11525945 59.24609375 72.09765625 C58.47064713 72.0962413 57.6952005 72.09482635 56.89625549 72.09336853 C54.40996506 72.08775345 51.9237634 72.07519846 49.4375 72.0625 C47.75586067 72.05748694 46.07421994 72.0529237 44.39257812 72.04882812 C40.26168434 72.03777913 36.13085724 72.02050445 32 72 C32.06147934 80.43285439 32.13877527 88.86535846 32.23571491 97.29787254 C32.28025321 101.21434812 32.31954457 105.13072363 32.34643555 109.04736328 C32.37263515 112.83419095 32.41315185 116.62063006 32.46318626 120.40721512 C32.47974333 121.84468338 32.49132655 123.28221867 32.49761391 124.71976852 C32.26934632 138.63462659 32.26934632 138.63462659 38.375 150.5625 C45.95739999 154.71476666 54.06438301 153.21156539 62 151 C64.9375 150.3125 64.9375 150.3125 67 150 C68 151 68 151 68.11352539 153.77563477 C68.10567017 155.59019165 68.10567017 155.59019165 68.09765625 157.44140625 C68.09282227 159.39916992 68.09282227 159.39916992 68.08789062 161.39648438 C68.07953401 162.7851569 68.07106905 164.17382877 68.0625 165.5625 C68.05748666 166.95507656 68.05292347 168.34765481 68.04882812 169.74023438 C68.03699434 173.1601987 68.0205088 176.58007844 68 180 C54.18334428 184.69739234 36.56421549 187.88043334 22.69165039 181.84423828 C10.72112428 175.65655088 5.06924362 166.76926749 0.6875 154.25 C-0.63497596 147.99829545 -1.12492138 141.95597555 -1.11352539 135.57421875 C-1.11367142 134.88054703 -1.11381744 134.18687531 -1.1139679 133.47218323 C-1.11327885 131.21058879 -1.10553439 128.9490798 -1.09765625 126.6875 C-1.09578848 125.10709681 -1.09436627 123.52669304 -1.09336853 121.94628906 C-1.08957162 117.81010304 -1.07976582 113.67395277 -1.06866455 109.53778076 C-1.05838932 105.30774418 -1.05385788 101.07770175 -1.04882812 96.84765625 C-1.03814071 88.56508785 -1.02109868 80.28254839 -1 72 C-1.60062256 72.00523682 -2.20124512 72.01047363 -2.82006836 72.01586914 C-5.52586838 72.03658014 -8.23165177 72.04964125 -10.9375 72.0625 C-11.88302734 72.07087891 -12.82855469 72.07925781 -13.80273438 72.08789062 C-15.15141602 72.09272461 -15.15141602 72.09272461 -16.52734375 72.09765625 C-17.35999756 72.10289307 -18.19265137 72.10812988 -19.05053711 72.11352539 C-21 72 -21 72 -22 71 C-22.09985642 69.02416172 -22.13080794 67.04476522 -22.1328125 65.06640625 C-22.13410156 63.86048828 -22.13539062 62.65457031 -22.13671875 61.41210938 C-22.13285156 60.14173828 -22.12898438 58.87136719 -22.125 57.5625 C-22.12886719 56.29599609 -22.13273437 55.02949219 -22.13671875 53.72460938 C-22.13542969 52.51740234 -22.13414063 51.31019531 -22.1328125 50.06640625 C-22.13168457 48.95209229 -22.13055664 47.83777832 -22.12939453 46.68969727 C-22 44 -22 44 -21 42 C-14.4 42 -7.8 42 -1 42 C-1.01160156 39.13570313 -1.02320313 36.27140625 -1.03515625 33.3203125 C-1.04294962 30.5535493 -1.04902479 27.78678732 -1.05493164 25.02001953 C-1.05996787 23.09358169 -1.06679712 21.16714769 -1.07543945 19.24072266 C-1.08753608 16.47557632 -1.09323533 13.71048042 -1.09765625 10.9453125 C-1.10281754 10.0806839 -1.10797882 9.2160553 -1.11329651 8.32522583 C-1.11387171 2.22774341 -1.11387171 2.22774341 0 0 Z " fill="#1CD4C9" transform="translate(1693,334)"/>
<path d="M0 0 C4.186875 -0.061875 8.37375 -0.12375 12.6875 -0.1875 C13.97873779 -0.21481201 15.26997559 -0.24212402 16.6003418 -0.27026367 C38.0291797 -0.42118241 58.18914188 7.8678752 73.4375 22.875 C78.50608617 28.05921304 82.47761612 33.65174882 86 40 C86.37382813 40.61617188 86.74765625 41.23234375 87.1328125 41.8671875 C94.37291577 54.69414211 95.73390347 68.79856611 95.56762695 83.17797852 C95.56621213 84.92430582 95.56701691 86.67063608 95.56983948 88.41696167 C95.57125812 93.09995919 95.54212374 97.78229978 95.50696969 102.4651463 C95.47544363 107.3804513 95.47275496 112.29577588 95.46684265 117.21116638 C95.45138062 126.49326852 95.41045693 135.77507175 95.3600952 145.05704302 C95.30396217 155.63518633 95.27665532 166.21334487 95.25161803 176.79160035 C95.19953324 198.52789958 95.11174155 220.26393086 95 242 C94.34 242 93.68 242 93 242 C92.18015625 240.46472656 92.18015625 240.46472656 91.34375 238.8984375 C89.13494191 235.04464864 86.52645085 231.86075309 83.5 228.625 C82.9838916 228.06844727 82.4677832 227.51189453 81.93603516 226.93847656 C76.47039784 221.20030067 70.12912598 215.56456299 63 212 C62.99761165 211.27554436 62.99522329 210.55108871 62.99276257 209.80467987 C62.93357261 192.16001961 62.85799698 174.51550529 62.76428509 156.87099457 C62.71935958 148.3381626 62.67993745 139.80537208 62.65356445 131.27246094 C62.63055806 123.83335789 62.5971306 116.39438631 62.55129844 108.95538759 C62.52740174 105.01812586 62.50864974 101.08099405 62.50238609 97.1436615 C62.49631907 93.43357797 62.47626138 89.72382672 62.44572449 86.01386642 C62.43281291 84.01157248 62.43450977 82.00920081 62.4367218 80.00686646 C62.36663655 73.26669161 61.86784044 68.1225687 59 62 C58.55140625 60.95714844 58.1028125 59.91429687 57.640625 58.83984375 C52.58780744 48.2942161 46.47384182 42.22991031 36 37 C35.31583008 36.65727051 34.63166016 36.31454102 33.92675781 35.96142578 C26.77780286 32.71282659 20.14709198 32.34691628 12.375 32.25 C8.29125 32.1675 4.2075 32.085 0 32 C0 21.44 0 10.88 0 0 Z " fill="#0F88FD" transform="translate(455,228)"/>
<path d="M0 0 C1.71896484 -0.0309375 1.71896484 -0.0309375 3.47265625 -0.0625 C4.57996094 -0.06765625 5.68726563 -0.0728125 6.828125 -0.078125 C7.84293945 -0.0874707 8.85775391 -0.09681641 9.90332031 -0.10644531 C13.23409598 0.31061579 15.06362954 1.26401716 17.75 3.25 C20.2023374 6.9285061 20.02673615 9.6784223 19.99723816 13.93106079 C19.99965257 14.72104411 20.00206699 15.51102742 20.00455457 16.32494962 C20.01020483 18.98055099 20.00151853 21.63591323 19.99291992 24.29150391 C19.99399246 26.19177821 19.99593072 28.0920522 19.99867249 29.99232483 C20.00352785 35.15943708 19.995857 40.32646324 19.98571944 45.49356508 C19.97695244 50.89165433 19.97869611 56.28974078 19.9790802 61.68783569 C19.97814309 70.75186611 19.96945193 79.81586308 19.95581055 88.87988281 C19.94007507 99.37442193 19.93481274 109.86892443 19.9355461 120.36347449 C19.93615542 130.44259185 19.93105938 140.52169723 19.92275429 150.600811 C19.91921455 154.89825916 19.91739006 159.19570308 19.91686058 163.49315262 C19.91585957 168.54754678 19.90978289 173.60190993 19.89969444 178.65629387 C19.89676191 180.51676557 19.89554559 182.37724084 19.89612198 184.23771477 C19.89660908 186.7661455 19.89099265 189.294488 19.88371277 191.82290649 C19.88526137 192.56890031 19.88680997 193.31489413 19.8884055 194.08349383 C19.86417873 199.13582127 19.86417873 199.13582127 18.75 200.25 C16.47052208 200.3502093 14.18792865 200.38081303 11.90625 200.3828125 C10.87981384 200.38424759 10.87981384 200.38424759 9.8326416 200.38571167 C8.38338123 200.3863933 6.93411782 200.38454023 5.48486328 200.38037109 C3.25937072 200.37502252 1.03407999 200.3803166 -1.19140625 200.38671875 C-2.59635461 200.38605797 -4.00130285 200.3847768 -5.40625 200.3828125 C-6.69337891 200.38168457 -7.98050781 200.38055664 -9.30664062 200.37939453 C-12.25 200.25 -12.25 200.25 -13.25 199.25 C-13.34997882 196.69772391 -13.38440999 194.17244407 -13.37698364 191.61962891 C-13.37854363 190.81093668 -13.38010362 190.00224445 -13.38171089 189.1690464 C-13.38572425 186.43820032 -13.38252995 183.70740907 -13.37939453 180.9765625 C-13.38074842 179.02732307 -13.38252829 177.0780839 -13.38470459 175.12884521 C-13.38928036 169.81908293 -13.38748878 164.50933998 -13.3843255 159.19957733 C-13.38180264 153.65600022 -13.38413923 148.11242483 -13.38571167 142.56884766 C-13.38753358 133.25748394 -13.38512649 123.94612814 -13.38037109 114.63476562 C-13.37492843 103.85284351 -13.37669107 93.07094029 -13.3821975 82.28901863 C-13.38672801 73.04999186 -13.38737948 63.8109708 -13.38475883 54.57194328 C-13.38319572 49.04594487 -13.38300323 43.51995537 -13.38629532 37.99395752 C-13.38917314 32.80006266 -13.38719998 27.6061923 -13.38140106 22.41230011 C-13.38007298 20.50022675 -13.38046838 18.58815135 -13.38266373 16.6760788 C-13.38537337 14.07748124 -13.3819964 11.47896349 -13.37698364 8.88037109 C-13.37921436 8.11355829 -13.38144509 7.34674549 -13.38374341 6.55669594 C-13.34982516 -2.43207649 -7.69247096 0.03415081 0 0 Z " fill="#1BD3C8" transform="translate(1475.25,315.75)"/>
<path d="M0 0 C8.76644401 6.50243745 14.72382966 14.66827925 17.2890625 25.3046875 C17.72561063 28.75426049 17.81422777 32.1424684 17.7890625 35.6171875 C17.78334229 36.53854492 17.77762207 37.45990234 17.77172852 38.40917969 C17.47320548 49.83145495 13.36334342 59.1493395 5.2890625 67.3046875 C2.44208641 69.63545364 -0.50937901 71.50106979 -3.7109375 73.3046875 C-4.34 73.71847656 -4.9690625 74.13226563 -5.6171875 74.55859375 C-14.09630949 79.38698266 -26.02624819 78.60690708 -35.2578125 76.4921875 C-46.44659948 72.31813225 -54.66700954 64.00846861 -59.7109375 53.3046875 C-64.04792812 43.62478829 -64.45766665 31.41183669 -61.0859375 21.3671875 C-56.27054326 10.15923156 -48.71305423 1.22181964 -37.53515625 -4.00390625 C-25.77453908 -8.46135644 -10.49626997 -6.56394981 0 0 Z " fill="#FBFBFC" transform="translate(1130.7109375,410.6953125)"/>
<path d="M0 0 C2.29264756 1.69655919 4.38547714 3.47555036 6.46875 5.421875 C7.31566406 6.18951172 7.31566406 6.18951172 8.1796875 6.97265625 C15.91930007 14.889062 18.92976258 27.29971404 18.8125 38.1171875 C17.47755751 50.95083919 12.39799589 61.92582094 2.32421875 70.109375 C-0.78103716 72.30593497 -4.04559233 73.92080503 -7.53125 75.421875 C-8.43875 75.834375 -9.34625 76.246875 -10.28125 76.671875 C-20.411748 79.00968223 -32.07308108 77.75017714 -41.328125 72.98046875 C-51.39835128 66.40430583 -57.8042726 57.15029107 -60.53125 45.421875 C-61.7644868 35.10186449 -61.50168108 24.74336881 -56.53125 15.421875 C-55.89509766 14.22691406 -55.89509766 14.22691406 -55.24609375 13.0078125 C-50.00154843 4.27177322 -41.41445215 -2.01908988 -31.73828125 -5.16015625 C-20.86800674 -7.21877461 -9.44117533 -5.88616486 0 0 Z " fill="#FBFDFD" transform="translate(1612.53125,410.578125)"/>
<path d="M0 0 C0.68429077 -0.00095673 1.36858154 -0.00191345 2.0736084 -0.00289917 C3.52286877 -0.0035808 4.97213218 -0.00172773 6.42138672 0.00244141 C8.64687928 0.00778998 10.87217001 0.0024959 13.09765625 -0.00390625 C14.50260461 -0.00324547 15.90755285 -0.0019643 17.3125 0 C18.59962891 0.00112793 19.88675781 0.00225586 21.21289062 0.00341797 C24.15625 0.1328125 24.15625 0.1328125 25.15625 1.1328125 C25.25264184 2.92975288 25.27812425 4.73052143 25.27650452 6.53004456 C25.27787918 7.70098663 25.27925385 8.87192871 25.28067017 10.07835388 C25.27527725 12.02258995 25.27527725 12.02258995 25.26977539 14.00610352 C25.26949352 15.37569171 25.26965125 16.74528006 25.2702179 18.11486816 C25.27050588 21.84404198 25.26460909 25.57318391 25.25764394 29.30235028 C25.25141047 33.19545663 25.25080661 37.08856363 25.24961853 40.98167419 C25.24650519 48.35879396 25.23829178 55.73589899 25.22826904 63.11301225 C25.21710797 71.50948793 25.21159747 79.90596429 25.20657361 88.30244553 C25.19610916 105.57924452 25.17776366 122.8560232 25.15625 140.1328125 C14.26625 140.1328125 3.37625 140.1328125 -7.84375 140.1328125 C-7.86629632 122.02673312 -7.88472876 103.92066566 -7.89556217 85.81457615 C-7.90072531 77.40819866 -7.90776834 69.00183049 -7.91918945 60.59545898 C-7.92913575 53.27113318 -7.9356033 45.94681413 -7.93783849 38.62248176 C-7.93914569 34.74190463 -7.94223212 30.8613468 -7.94948006 26.98077583 C-7.95623942 23.33241693 -7.95836713 19.68408539 -7.95685768 16.03572083 C-7.95726637 14.04992831 -7.962662 12.0641388 -7.96817017 10.07835388 C-7.9667955 8.9074118 -7.96542084 7.73646973 -7.96400452 6.53004456 C-7.96538721 4.99387655 -7.96538721 4.99387655 -7.96679783 3.42667484 C-7.70817158 -1.39464554 -4.05305414 0.00355175 0 0 Z " fill="#052878" transform="translate(1222.84375,375.8671875)"/>
<path d="M0 0 C32.01 0 64.02 0 97 0 C97 10.56 97 21.12 97 32 C64.99 32 32.98 32 0 32 C0 21.44 0 10.88 0 0 Z " fill="#0C57FC" transform="translate(286,228)"/>
<path d="M0 0 C4.84100882 3.25142384 7.52667314 7.41923482 8.64453125 13.04296875 C8.74541573 14.98608005 8.79280184 16.93224375 8.80566406 18.87792969 C8.81527161 20.05305115 8.82487915 21.22817261 8.83477783 22.43890381 C8.83902771 23.70558899 8.84327759 24.97227417 8.84765625 26.27734375 C8.85335632 27.58447327 8.8590564 28.89160278 8.8649292 30.23834229 C8.8754209 33.00557848 8.88127511 35.77278579 8.88476562 38.54003906 C8.89023788 42.06822284 8.91424592 45.59601828 8.94273758 49.12408066 C8.96596217 52.50849351 8.9678203 55.89285541 8.97265625 59.27734375 C8.98500305 60.53593201 8.99734985 61.79452026 9.0100708 63.09124756 C8.98973919 71.13779142 8.58344771 77.36932317 3.39453125 83.85546875 C-0.76817709 87.16671402 -4.51135718 88.80826364 -9.79296875 89.48046875 C-15.02758024 88.83762173 -19.26801445 87.26443246 -22.9375 83.359375 C-26.70309102 78.313266 -27.47451758 74.31418099 -27.5324707 68.02441406 C-27.54530594 66.8092511 -27.55814117 65.59408813 -27.57136536 64.34210205 C-27.57875229 63.03166931 -27.58613922 61.72123657 -27.59375 60.37109375 C-27.59782553 59.70072838 -27.60190105 59.03036301 -27.60610008 58.33968353 C-27.6269239 54.79026096 -27.64124059 51.2408766 -27.65063477 47.69140625 C-27.66168237 44.04204789 -27.69607276 40.39330207 -27.73580647 36.7441597 C-27.76206403 33.92326799 -27.77033468 31.10252017 -27.77391624 28.28151703 C-27.78110094 26.28746322 -27.80749979 24.29350816 -27.83430481 22.29962158 C-27.81550142 14.40841146 -27.35179738 8.5190574 -21.89619446 2.4085083 C-16.44550445 -2.84895982 -6.67778994 -2.71319824 0 0 Z " fill="#0F71FD" transform="translate(259.35546875,183.95703125)"/>
<path d="M0 0 C5.14219779 1.84878349 7.84027271 5.58965928 10.17282104 10.46099854 C11.91459788 15.80733129 11.58792728 21.4229814 11.56640625 26.9921875 C11.57165291 28.34685693 11.57793317 29.70152271 11.58518982 31.05618286 C11.59555285 33.88544999 11.591094 36.71421293 11.57641602 39.54345703 C11.5592546 43.1434959 11.5827091 46.74193455 11.61790562 50.34179497 C11.64002305 53.13711838 11.63840367 55.93206751 11.6301403 58.72745132 C11.62893732 60.69146149 11.64873205 62.65544915 11.66908264 64.61935425 C11.58843239 72.43598088 10.56137695 78.50662635 6 85 C0.90558883 89.45760978 -4.14953173 89.79344144 -10.83203125 89.578125 C-15.91871051 88.64985308 -19.02383669 86.156366 -22 82 C-25.79505107 75.30510143 -25.43438487 68.77330133 -25.3984375 61.21875 C-25.40046202 59.87788739 -25.4033766 58.53702586 -25.40713501 57.19616699 C-25.41154066 54.39548182 -25.4051847 51.59508505 -25.39111328 48.79443359 C-25.37402197 45.22021269 -25.3838727 41.64666778 -25.40183067 38.07247162 C-25.41271654 35.30648791 -25.40920033 32.54066216 -25.4014473 29.77467346 C-25.39849765 27.82109127 -25.40754382 25.86750273 -25.4168396 23.91394043 C-25.35324202 15.85607971 -25.01140934 10.38783551 -19.5 4.1875 C-13.40705324 -1.14382841 -7.84418368 -0.84108064 0 0 Z " fill="#0F7CFC" transform="translate(426,183)"/>
<path d="M0 0 C2.8100346 1.79363911 4.50940468 3.01880935 6 6 C6.08934406 7.41973273 6.11758978 8.84357791 6.11352539 10.26611328 C6.11344986 11.14687531 6.11337433 12.02763733 6.11329651 12.93508911 C6.10813522 13.88721283 6.10297394 14.83933655 6.09765625 15.8203125 C6.0962413 16.79410858 6.09482635 17.76790466 6.09336853 18.77120972 C6.08775973 21.88917073 6.07520573 25.0070606 6.0625 28.125 C6.05748613 30.23567605 6.05292303 32.34635322 6.04882812 34.45703125 C6.03778745 39.63804521 6.02104073 44.81901752 6 50 C6.66209473 50.03448242 7.32418945 50.06896484 8.00634766 50.10449219 C15.16446782 50.59936837 21.56285863 52.04192659 28.375 54.25 C29.33277344 54.53746094 30.29054688 54.82492187 31.27734375 55.12109375 C36.75193698 56.86474027 40.49205068 58.35927537 44 63 C44.78837003 67.33603518 44.25514478 69.46027066 42.375 73.4375 C39.58884812 76.27723172 37.0228749 76.54757413 33.125 76.75 C23.34148134 76.35658867 14.02147361 73.39920405 4.65966797 70.71777344 C1.43839513 69.84843783 -1.80283367 69.17893196 -5.08276367 68.57177734 C-8.5030322 67.55175074 -10.50159274 65.49840726 -13 63 C-14.27034403 60.45931195 -14.14775949 58.64788391 -14.17700195 55.8034668 C-14.18983719 54.71861496 -14.20267242 53.63376312 -14.21589661 52.51603699 C-14.22328354 51.33898697 -14.23067047 50.16193695 -14.23828125 48.94921875 C-14.246353 47.74312454 -14.25442474 46.53703033 -14.26274109 45.29438782 C-14.276591 42.73802126 -14.28730907 40.18163614 -14.29516602 37.62524414 C-14.31238335 33.71399946 -14.35626376 29.80359878 -14.40039062 25.89257812 C-14.4105168 23.41146456 -14.41903314 20.9303438 -14.42578125 18.44921875 C-14.45204338 16.69275276 -14.45204338 16.69275276 -14.47883606 14.90080261 C-14.45710675 6.77295583 -14.45710675 6.77295583 -12.09838867 2.78442383 C-8.35842302 -0.39596116 -4.78303674 -0.68721792 0 0 Z " fill="#0C8EFD" transform="translate(458,480)"/>
<path d="M0 0 C6.40022875 4.65389348 12.53896283 10.25420932 15 18 C15 20.31 15 22.62 15 25 C-9.42 25 -33.84 25 -59 25 C-57.27258079 14.63548473 -52.12625967 7.61380125 -44 1 C-30.89344952 -7.0714827 -13.33268717 -8.32565181 0 0 Z " fill="#F9FAFC" transform="translate(967,408)"/>
<path d="M0 0 C5.70305497 3.6223384 9.25812834 7.39157253 11.41796875 13.87109375 C12.18049442 19.75895019 12.09962021 24.60716619 8.91796875 29.74609375 C4.82248545 35.03886451 0.99187608 38.38115786 -5.7734375 39.30859375 C-10.71258193 39.48840333 -14.48989843 39.36751776 -19.01953125 37.30859375 C-25.29446624 31.33975315 -28.62826389 27.47252274 -28.95703125 18.62109375 C-28.88758503 12.83390878 -27.47125454 9.14826949 -23.58203125 4.87109375 C-16.91477264 -0.97917037 -8.48952512 -3.71175909 0 0 Z " fill="#092B79" transform="translate(1240.58203125,316.12890625)"/>
<path d="M0 0 C1.03567502 0.24260512 1.03567502 0.24260512 2.09227276 0.49011135 C5.28934479 1.05073847 8.27738388 1.139937 11.52363586 1.15821838 C13.50285789 1.17290161 13.50285789 1.17290161 15.52206421 1.18788147 C16.9773556 1.19378496 18.43264736 1.19959545 19.88793945 1.20532227 C21.42560588 1.21490597 22.9632697 1.22491634 24.50093079 1.23532104 C28.66990652 1.26232284 32.83889353 1.28335795 37.00790811 1.30332303 C41.36679902 1.32521177 45.7256554 1.35258632 50.08451843 1.37937927 C58.33625339 1.42926713 66.58800755 1.47422044 74.83978003 1.51740164 C84.2351451 1.56680742 93.6304755 1.62171315 103.02580702 1.67708123 C122.35050582 1.79084129 141.67523734 1.89769332 161 2 C161 2.66 161 3.32 161 4 C158.69 4.33 156.38 4.66 154 5 C154 4.34 154 3.68 154 3 C153.13615724 3.16224217 152.27231447 3.32448435 151.38229465 3.49164295 C148.15257883 3.97706749 145.14562354 4.12846851 141.88328552 4.13371277 C140.0769162 4.14011024 140.0769162 4.14011024 138.23405457 4.14663696 C136.92632584 4.14618378 135.61859711 4.14573059 134.27124023 4.14526367 C132.86961783 4.14825827 131.46799624 4.15166149 130.06637573 4.15544128 C126.27105738 4.16425206 122.47576158 4.16661808 118.68043399 4.16725707 C116.30808768 4.1679689 113.93574707 4.17010568 111.56340218 4.17275429 C103.28420778 4.18199599 95.00502946 4.18609039 86.72583008 4.18530273 C79.01182961 4.18470132 71.29789893 4.19526862 63.58391613 4.2110464 C56.95531842 4.22412053 50.32674355 4.22948673 43.69813305 4.22884732 C39.74148893 4.22859242 35.78490694 4.23143962 31.82827568 4.24202538 C28.10920619 4.25170494 24.39025831 4.25178656 20.67118454 4.24450874 C18.65758933 4.24296457 16.64399414 4.25130946 14.63041687 4.25994873 C12.82827728 4.253657 12.82827728 4.253657 10.98973083 4.24723816 C9.94760154 4.24778293 8.90547224 4.24832769 7.83176327 4.24888897 C4.87051478 3.9886193 2.68502563 3.24364112 0 2 C0 1.34 0 0.68 0 0 Z " fill="#0280FC" transform="translate(184,565)"/>
<path d="M0 0 C5 5 5 5 6 8 C4.02 8.99 4.02 8.99 2 10 C1.67 52.24 1.34 94.48 1 138 C0.67 138 0.34 138 0 138 C0 92.46 0 46.92 0 0 Z " fill="#EBEEF7" transform="translate(675,377)"/>
<path d="M0 0 C0.33 0 0.66 0 1 0 C1 45.21 1 90.42 1 137 C0.67 137 0.34 137 0 137 C-0.33 93.44 -0.66 49.88 -1 5 C-1.99 5.66 -2.98 6.32 -4 7 C-2.92598892 4.08482708 -2.22189824 2.22189824 0 0 Z " fill="#F1F4F8" transform="translate(811,377)"/>
<path d="M0 0 C0.33 0 0.66 0 1 0 C1 11.22 1 22.44 1 34 C12.14443325 33.96039927 12.14443325 33.96039927 23.28881836 33.90991211 C24.68082605 33.90699286 26.07283459 33.90444433 27.46484375 33.90234375 C28.55835144 33.8946698 28.55835144 33.8946698 29.6739502 33.88684082 C31.44970076 33.88652989 33.22534208 33.93771485 35 34 C36 35 36 35 36.11352539 37.68383789 C36.10828857 38.85164795 36.10305176 40.01945801 36.09765625 41.22265625 C36.09443359 42.48271484 36.09121094 43.74277344 36.08789062 45.04101562 C36.07953403 46.38151109 36.07106907 47.72200588 36.0625 49.0625 C36.0574866 50.40689942 36.05292342 51.7513006 36.04882812 53.09570312 C36.03699488 56.39717941 36.02050971 59.69856803 36 63 C35.34 63 34.68 63 34 63 C34 54.09 34 45.18 34 36 C27.30024881 36.03909915 27.30024881 36.03909915 20.60058594 36.09008789 C13.61745195 36.11028919 7.02169665 35.58514139 0 35 C0 23.45 0 11.9 0 0 Z " fill="#51DDD6" transform="translate(1725,342)"/>
<path d="M0 0 C3 2 3 2 5 4 C4.67 5.32 4.34 6.64 4 8 C3.67 6.68 3.34 5.36 3 4 C2.34 4 1.68 4 1 4 C1 3.34 1 2.68 1 2 C-3.455 2.495 -3.455 2.495 -8 3 C-8 3.66 -8 4.32 -8 5 C-8.99 5 -9.98 5 -11 5 C-12.07509824 9.33742883 -12.11314848 13.53848929 -12.0625 17.9765625 C-12.05871338 18.74245697 -12.05492676 19.50835144 -12.05102539 20.29745483 C-12.03480979 23.55302706 -12.00686572 26.80847023 -11.97949219 30.06396484 C-11.91011133 39.0999091 -11.88317661 48.01306182 -13 57 C-13.33 57 -13.66 57 -14 57 C-14.10146163 49.82849213 -14.17149156 42.65716951 -14.21972656 35.48510742 C-14.23983564 33.04558393 -14.26712683 30.6061086 -14.30175781 28.16674805 C-14.35030489 24.65922152 -14.37297632 21.15233257 -14.390625 17.64453125 C-14.41127014 16.55477493 -14.43191528 15.46501862 -14.45318604 14.34223938 C-14.45543071 6.75895361 -14.45543071 6.75895361 -12.10058594 2.8347168 C-8.38996393 -0.40625535 -4.7959752 -0.7060996 0 0 Z " fill="#0B75FB" transform="translate(458,480)"/>
<path d="M0 0 C0.66 0.33 1.32 0.66 2 1 C1.32195312 1.52207031 0.64390625 2.04414063 -0.0546875 2.58203125 C-15.97006515 15.16884654 -25.2967366 29.98311446 -34 48 C-34.66 47.67 -35.32 47.34 -36 47 C-32.21161781 32.60414767 -23.28562485 21.36158958 -13 11 C-12.24074219 10.20335937 -11.48148437 9.40671875 -10.69921875 8.5859375 C-4.19793898 1.8520319 -4.19793898 1.8520319 0 0 Z " fill="#1C73FC" transform="translate(400,455)"/>
<path d="M0 0 C10.23 0 20.46 0 31 0 C31 0.33 31 0.66 31 1 C29.94087402 1.029729 29.94087402 1.029729 28.86035156 1.06005859 C25.65653006 1.15540415 22.45335199 1.26504513 19.25 1.375 C18.13882812 1.4059375 17.02765625 1.436875 15.8828125 1.46875 C14.27792969 1.52675781 14.27792969 1.52675781 12.640625 1.5859375 C11.16384277 1.63306885 11.16384277 1.63306885 9.65722656 1.68115234 C6.6589101 1.88932152 6.6589101 1.88932152 3 4 C2.67 17.86 2.34 31.72 2 46 C1.67 46 1.34 46 1 46 C0.67 30.82 0.34 15.64 0 0 Z " fill="#355294" transform="translate(1149,315)"/>
<path d="M0 0 C0.33 0 0.66 0 1 0 C1.11816385 6.02635611 0.92143656 11.23569031 -1 17 C-1.08378628 19.2838517 -1.10729915 21.570101 -1.09765625 23.85546875 C-1.0962413 24.51710526 -1.09482635 25.17874176 -1.09336853 25.86042786 C-1.08777996 27.96949828 -1.07522965 30.07846177 -1.0625 32.1875 C-1.05748352 33.61913909 -1.05292087 35.05077985 -1.04882812 36.48242188 C-1.0378143 39.98831588 -1.02055755 43.4941475 -1 47 C-3.68765383 41.80386926 -4.19349882 37.48355751 -4.1875 31.6875 C-4.18669434 30.88586426 -4.18588867 30.08422852 -4.18505859 29.25830078 C-4.08399595 19.28480547 -2.69193143 9.61404082 0 0 Z " fill="#1C7AFC" transform="translate(362,506)"/>
<path d="M0 0 C0.66 0.33 1.32 0.66 2 1 C1.28714844 1.67804688 0.57429688 2.35609375 -0.16015625 3.0546875 C-6.23628965 8.92697368 -11.44183678 14.82828244 -16 22 C-16.99 21.67 -17.98 21.34 -19 21 C-14.09116294 12.88974747 -7.50367326 5.77205636 0 0 Z " fill="#1A47FB" transform="translate(150,243)"/>
<path d="M0 0 C15.84 0 31.68 0 48 0 C48 0.66 48 1.32 48 2 C45.69 2.33 43.38 2.66 41 3 C41 2.34 41 1.68 41 1 C40.17999512 1.16749756 39.35999023 1.33499512 38.51513672 1.50756836 C34.55432329 2.06243436 30.73898033 2.02541999 26.7578125 1.87890625 C25.60525467 1.84348976 25.60525467 1.84348976 24.42941284 1.80735779 C21.99439439 1.73127024 19.55973912 1.6470128 17.125 1.5625 C15.46616313 1.5092242 13.80730897 1.45648425 12.1484375 1.40429688 C8.09873183 1.27573028 4.04933143 1.13983987 0 1 C0 0.67 0 0.34 0 0 Z " fill="#0190FC" transform="translate(297,567)"/>
<path d="M0 0 C0.66 0 1.32 0 2 0 C5.6584582 10.14704444 6.13428283 19.24245358 6 30 C5.67 30 5.34 30 5 30 C4.67 27.03 4.34 24.06 4 21 C3.67 21 3.34 21 3 21 C2.86722656 19.90300781 2.73445313 18.80601562 2.59765625 17.67578125 C2.41937015 16.22134199 2.2409792 14.76691558 2.0625 13.3125 C1.97548828 12.59126953 1.88847656 11.87003906 1.79882812 11.12695312 C1.33686195 7.37989416 0.80832321 3.69207089 0 0 Z " fill="#4CDFD5" transform="translate(1431,438)"/>
<path d="M0 0 C3 2 3 2 5 4 C4.67 5.32 4.34 6.64 4 8 C3.67 6.68 3.34 5.36 3 4 C2.34 4 1.68 4 1 4 C1 3.34 1 2.68 1 2 C-3.455 2.495 -3.455 2.495 -8 3 C-8 3.66 -8 4.32 -8 5 C-8.99 5 -9.98 5 -11 5 C-11.33 5.66 -11.66 6.32 -12 7 C-12 3 -12 3 -10.5 1.25 C-7.01395519 -0.4930224 -3.77854808 -0.71081598 0 0 Z " fill="#207CFD" transform="translate(458,480)"/>
<path d="M0 0 C0.66 0.33 1.32 0.66 2 1 C3.4465242 1.15067214 4.8987934 1.24861036 6.3515625 1.31640625 C7.62773437 1.37924805 7.62773437 1.37924805 8.9296875 1.44335938 C9.81914062 1.48267578 10.70859375 1.52199219 11.625 1.5625 C12.97078125 1.62727539 12.97078125 1.62727539 14.34375 1.69335938 C16.56234283 1.79956861 18.7810488 1.90161194 21 2 C21 2.33 21 2.66 21 3 C20.27409668 3.02505615 19.54819336 3.0501123 18.80029297 3.07592773 C15.49170554 3.19241241 12.18336624 3.31490014 8.875 3.4375 C7.73289063 3.47681641 6.59078125 3.51613281 5.4140625 3.55664062 C3.75117188 3.61948242 3.75117188 3.61948242 2.0546875 3.68359375 C1.03874512 3.72025146 0.02280273 3.75690918 -1.02392578 3.79467773 C-4.0637657 3.94139106 -4.0637657 3.94139106 -7.25341797 4.64477539 C-8.15979004 4.76199951 -9.06616211 4.87922363 -10 5 C-10.66 4.34 -11.32 3.68 -12 3 C-11.38511719 2.86722656 -10.77023438 2.73445313 -10.13671875 2.59765625 C-9.32847656 2.42105469 -8.52023438 2.24445313 -7.6875 2.0625 C-6.88699219 1.88847656 -6.08648437 1.71445312 -5.26171875 1.53515625 C-2.854599 1.00113841 -2.854599 1.00113841 0 0 Z " fill="#255AFA" transform="translate(193,257)"/>
<path d="M0 0 C0.6875 1.7578125 0.6875 1.7578125 1 4 C-2.10407035 9.04411431 -7.78457623 15.09443757 -13 18 C-15.20703125 17.65234375 -15.20703125 17.65234375 -17 17 C-16.35933594 16.52691406 -15.71867187 16.05382812 -15.05859375 15.56640625 C-9.02933886 10.95685668 -4.34726885 6.21860975 0 0 Z " fill="#14ABFC" transform="translate(514,576)"/>
<path d="M0 0 C0 0.66 0 1.32 0 2 C-1.6396875 2.7734375 -1.6396875 2.7734375 -3.3125 3.5625 C-6.54911727 5.44562277 -8.21729391 7.21446694 -9.51171875 10.8515625 C-10.4951144 15.17850337 -10.76810888 19.57807631 -11 24 C-11.33 24 -11.66 24 -12 24 C-12.10883596 21.62374823 -12.18766696 19.25256024 -12.25 16.875 C-12.28351563 16.20984375 -12.31703125 15.5446875 -12.3515625 14.859375 C-12.45237653 9.71785941 -11.22373341 6.94599062 -8 3 C-5.01106771 0.81297638 -3.72055546 0 0 0 Z " fill="#1750FC" transform="translate(245,184)"/>
<path d="M0 0 C0.99 0.33 1.98 0.66 3 1 C3 9.91 3 18.82 3 28 C2.67 28 2.34 28 2 28 C1.97494385 27.43603516 1.9498877 26.87207031 1.92407227 26.29101562 C1.80681699 23.69385118 1.68468734 21.0969369 1.5625 18.5 C1.50352539 17.1696875 1.50352539 17.1696875 1.44335938 15.8125 C1.18915913 10.49384873 0.73323663 5.2743744 0 0 Z " fill="#57C0FC" transform="translate(525,515)"/>
<path d="M0 0 C0.66 0.66 1.32 1.32 2 2 C-1.40021332 5.80023841 -3.96219776 7.92812718 -9 9 C-11.18359375 8.5390625 -11.18359375 8.5390625 -13 8 C-12.39671875 7.67386719 -11.7934375 7.34773438 -11.171875 7.01171875 C-10.37265625 6.57472656 -9.5734375 6.13773437 -8.75 5.6875 C-7.96109375 5.25824219 -7.1721875 4.82898438 -6.359375 4.38671875 C-4.10272866 3.0603786 -2.06001403 1.61115776 0 0 Z " fill="#173785" transform="translate(1136,477)"/>
<path d="M0 0 C0.66 0.33 1.32 0.66 2 1 C1.28714844 1.56847656 0.57429688 2.13695312 -0.16015625 2.72265625 C-5.74442035 7.22464036 -11.07888202 11.77656078 -16 17 C-16 14 -16 14 -13.76953125 11.40625 C-12.79161604 10.42966528 -11.80555504 9.4611855 -10.8125 8.5 C-10.32974609 8.01402344 -9.84699219 7.52804687 -9.34960938 7.02734375 C-6.46542631 4.18574594 -3.65733114 1.76865754 0 0 Z " fill="#126AFC" transform="translate(400,455)"/>
<path d="M0 0 C2.15583679 3.23375518 3.88943619 6.59489994 5.625 10.0625 C5.94984375 10.69994141 6.2746875 11.33738281 6.609375 11.99414062 C9 16.76032366 9 16.76032366 9 19 C8.34 19 7.68 19 7 19 C7 18.01 7 17.02 7 16 C6.34 16 5.68 16 5 16 C-0.74031891 5.62642369 -0.74031891 5.62642369 0 0 Z " fill="#2FADFD" transform="translate(347,575)"/>
<path d="M0 0 C0.886875 0.309375 1.77375 0.61875 2.6875 0.9375 C7.25193555 2.40156423 11.202974 3.13705789 16 3 C16 3.99 16 4.98 16 6 C10.09640219 6.49196648 5.95908147 5.31411786 1 2 C0.67 1.34 0.34 0.68 0 0 Z " fill="#25B0FA" transform="translate(237,267)"/>
<path d="M0 0 C0.33 0 0.66 0 1 0 C1 7.92 1 15.84 1 24 C0.67 24 0.34 24 0 24 C-0.33 17.73 -0.66 11.46 -1 5 C-1.99 5.66 -2.98 6.32 -4 7 C-2.92598892 4.08482708 -2.22189824 2.22189824 0 0 Z " fill="#E8ECF4" transform="translate(811,377)"/>
<path d="M0 0 C-0.33 0.99 -0.66 1.98 -1 3 C-5.71817304 4.85026394 -9.08471601 5.19884975 -14 4 C-11.36505677 2.24337118 -9.96001018 1.58136607 -7 0.875 C-6.319375 0.70742188 -5.63875 0.53984375 -4.9375 0.3671875 C-3 0 -3 0 0 0 Z " fill="#213F89" transform="translate(932,375)"/>
<path d="M0 0 C0.66 0 1.32 0 2 0 C2 3.3 2 6.6 2 10 C1.67 10 1.34 10 1 10 C0.67 12.97 0.34 15.94 0 19 C-0.33 19 -0.66 19 -1 19 C-1.02714735 16.77090129 -1.04646254 14.54170633 -1.0625 12.3125 C-1.07990234 10.45044922 -1.07990234 10.45044922 -1.09765625 8.55078125 C-1.01478673 5.53764546 -0.70839449 2.91724661 0 0 Z " fill="#475E98" transform="translate(874,433)"/>
<path d="M0 0 C4.95 0 9.9 0 15 0 C12 3 12 3 9.08203125 3.07421875 C8.00308594 2.94660156 6.92414063 2.81898438 5.8125 2.6875 C4.72582031 2.56761719 3.63914062 2.44773437 2.51953125 2.32421875 C1.68808594 2.21722656 0.85664063 2.11023438 0 2 C0 1.34 0 0.68 0 0 Z " fill="#22ACFB" transform="translate(447,607)"/>
<path d="M0 0 C1.1875 1.5625 1.1875 1.5625 2 4 C-0.24489796 10.62244898 -0.24489796 10.62244898 -3 12 C-3 12.66 -3 13.32 -3 14 C-3.66 14 -4.32 14 -5 14 C-3.46527032 9.27775484 -1.76054874 4.64144669 0 0 Z " fill="#2CB3FD" transform="translate(524,555)"/>
<path d="M0 0 C0.33 1.32 0.66 2.64 1 4 C-0.11375 4.86625 -0.11375 4.86625 -1.25 5.75 C-3.66087643 7.72253526 -5.84042701 9.76044282 -8 12 C-8.99 11.67 -9.98 11.34 -11 11 C-10.54109375 10.62488281 -10.0821875 10.24976563 -9.609375 9.86328125 C-5.96703891 6.82545052 -2.82808093 3.84619007 0 0 Z " fill="#DFE6F0" transform="translate(1147,496)"/>
<path d="M0 0 C1.32 0.33 2.64 0.66 4 1 C1.57395248 3.42604752 -0.14192776 3.75843519 -3.4375 4.625 C-4.40558594 4.88539063 -5.37367188 5.14578125 -6.37109375 5.4140625 C-9 6 -9 6 -12 6 C-12 5.34 -12 4.68 -12 4 C-7.82262526 2.40861915 -4.46839215 1.78721942 0 2 C0 1.34 0 0.68 0 0 Z " fill="#1074FC" transform="translate(438,460)"/>
<path d="M0 0 C0.66 0 1.32 0 2 0 C2.19886487 4.27559462 1.70009787 7.09977547 0 11 C-0.36871088 12.65919896 -0.71281674 14.3247643 -1 16 C-1.66 16 -2.32 16 -3 16 C-2.68954268 14.0830014 -2.37655329 12.16641277 -2.0625 10.25 C-1.88847656 9.18265625 -1.71445312 8.1153125 -1.53515625 7.015625 C-1.11295829 4.63652407 -0.62797116 2.33084789 0 0 Z " fill="#10A9FD" transform="translate(528,539)"/>
<path d="M0 0 C3.35810395 1.38956025 5.18586552 2.82526467 7 6 C7.1875 8.75 7.1875 8.75 7 11 C5.66104368 9.33784732 4.32869858 7.67036393 3 6 C2.4225 5.278125 1.845 4.55625 1.25 3.8125 C0 2 0 2 0 0 Z " fill="#1C3A84" transform="translate(723,446)"/>
<path d="M0 0 C5.841744 -0.35050464 9.8531808 -0.16727335 15 3 C11.34142468 4.31534494 8.91973519 3.65468309 5.25 2.5625 C4.26515625 2.27503906 3.2803125 1.98757813 2.265625 1.69140625 C1.51796875 1.46324219 0.7703125 1.23507812 0 1 C0 0.67 0 0.34 0 0 Z " fill="#42B7FB" transform="translate(472,552)"/>
<path d="M0 0 C0.66 0 1.32 0 2 0 C2.53394179 1.4117783 3.05165104 2.82970244 3.5625 4.25 C3.85253906 5.03890625 4.14257812 5.8278125 4.44140625 6.640625 C5.04522837 9.19103452 4.8473932 10.55322229 4 13 C4 12.01 4 11.02 4 10 C3.34 10 2.68 10 2 10 C1.34 6.7 0.68 3.4 0 0 Z " fill="#36DCD0" transform="translate(1431,438)"/>
<path d="M0 0 C1.65 1.65 3.3 3.3 5 5 C3.68 5.99 2.36 6.98 1 8 C0 7 0 7 -0.0625 3.4375 C-0.041875 2.303125 -0.02125 1.16875 0 0 Z " fill="#F0F2F8" transform="translate(676,379)"/>
<path d="M0 0 C-2.74093665 1.8272911 -5.13825324 2.93698178 -8.1875 4.125 C-9.08855469 4.47820312 -9.98960937 4.83140625 -10.91796875 5.1953125 C-11.94857422 5.59363281 -11.94857422 5.59363281 -13 6 C-12 3 -12 3 -8.75 1.3125 C-5.45873369 0.16055679 -3.4127883 -0.31025348 0 0 Z " fill="#1645FD" transform="translate(175,232)"/>
<path d="M0 0 C2.40034102 3.60051153 4.32187705 6.96144535 3.625 11.375 C3.41875 11.91125 3.2125 12.4475 3 13 C3 12.01 3 11.02 3 10 C2.34 10 1.68 10 1 10 C-0.1577506 6.52674819 -0.06866652 3.63932552 0 0 Z " fill="#42BAFD" transform="translate(544,501)"/>
<path d="M0 0 C0.66 0.33 1.32 0.66 2 1 C0.95125002 3.62187494 0.35068687 4.79371361 -2.125 6.25 C-2.74375 6.4975 -3.3625 6.745 -4 7 C-4.33 6.01 -4.66 5.02 -5 4 C-3.35 2.68 -1.7 1.36 0 0 Z " fill="#1C3C89" transform="translate(1222,317)"/>
<path d="M0 0 C-0.54269531 0.33773437 -1.08539063 0.67546875 -1.64453125 1.0234375 C-2.71767578 1.69246094 -2.71767578 1.69246094 -3.8125 2.375 C-4.87404297 3.03628906 -4.87404297 3.03628906 -5.95703125 3.7109375 C-7.65432039 4.78188476 -9.33014358 5.88676239 -11 7 C-10.03928241 3.76849539 -9.30588515 2.24148827 -6.625 0.125 C-3.68590623 -1.13461162 -2.92931581 -0.90995768 0 0 Z " fill="#1559FC" transform="translate(415,185)"/>
<path d="M0 0 C-0.33 0.99 -0.66 1.98 -1 3 C-2.98 3.33 -4.96 3.66 -7 4 C-7.33 3.01 -7.66 2.02 -8 1 C-5.29120665 -0.35439668 -2.99066732 -0.06501451 0 0 Z " fill="#244491" transform="translate(1094,374)"/>
<path d="M0 0 C0.66 0.33 1.32 0.66 2 1 C0.125 5.75 0.125 5.75 -1 8 C-1.99 7.67 -2.98 7.34 -4 7 C-2.68 4.69 -1.36 2.38 0 0 Z " fill="#1A3683" transform="translate(778,365)"/>
<path d="M0 0 C-1 2 -1 2 -3.06640625 2.8515625 C-4.30197266 3.23441406 -4.30197266 3.23441406 -5.5625 3.625 C-6.80193359 4.01558594 -6.80193359 4.01558594 -8.06640625 4.4140625 C-8.70449219 4.60742188 -9.34257812 4.80078125 -10 5 C-9 2 -9 2 -7.25 0.8125 C-4.70039426 -0.10819096 -2.69076919 -0.14948718 0 0 Z " fill="#0B44F9" transform="translate(183,261)"/>
<path d="M0 0 C-2.97 1.32 -5.94 2.64 -9 4 C-8 0 -8 0 -6.1875 -1.375 C-4 -2 -4 -2 0 0 Z " fill="#E6ECFD" transform="translate(167,234)"/>
<path d="M0 0 C0.99 0.33 1.98 0.66 3 1 C4.1875 4.0625 4.1875 4.0625 5 7 C4.34 7.66 3.68 8.32 3 9 C0 3.375 0 3.375 0 0 Z " fill="#1C3C86" transform="translate(907,463)"/>
<path d="M0 0 C2.64465038 3.1254959 3.84414715 6.08788267 5 10 C2 9 2 9 0.8125 6.6875 C0 4 0 4 0 0 Z " fill="#36B3FD" transform="translate(538,488)"/>
<path d="M0 0 C1.62580966 0.11398665 3.25067157 0.24155659 4.875 0.375 C5.77992187 0.44460938 6.68484375 0.51421875 7.6171875 0.5859375 C10 1 10 1 12 3 C10.68 3.33 9.36 3.66 8 4 C8 3.34 8 2.68 8 2 C6.02 2.33 4.04 2.66 2 3 C2 2.34 2 1.68 2 1 C1.34 0.67 0.68 0.34 0 0 Z " fill="#5FE0D9" transform="translate(1378,315)"/>
<path d="M0 0 C1.32 0.66 2.64 1.32 4 2 C3.01 3.485 3.01 3.485 2 5 C-0.475 4.01 -0.475 4.01 -3 3 C-2.01 2.01 -1.02 1.02 0 0 Z " fill="#143074" transform="translate(1067,505)"/>
<path d="M0 0 C0.66 0.33 1.32 0.66 2 1 C-0.36292656 3.52588702 -1.66462511 4.88820837 -5 6 C-5.66 5.34 -6.32 4.68 -7 4 C-1.7265625 0.77734375 -1.7265625 0.77734375 0 0 Z " fill="#33D9CF" transform="translate(1614,480)"/>
<path d="M0 0 C0.75 1.6875 0.75 1.6875 1 4 C-0.9375 6.75 -0.9375 6.75 -3 9 C-3 4.72290301 -2.29379749 3.44069624 0 0 Z " fill="#18388A" transform="translate(810,317)"/>
<path d="M0 0 C0 0.66 0 1.32 0 2 C-3.96 3.98 -3.96 3.98 -8 6 C-8 5.01 -8 4.02 -8 3 C-5.11165997 0.89229241 -3.61537605 0 0 0 Z " fill="#1145FB" transform="translate(245,184)"/>
<path d="M0 0 C0.6875 1.8125 0.6875 1.8125 1 4 C-0.4375 5.75 -0.4375 5.75 -2 7 C-2.99 6.67 -3.98 6.34 -5 6 C-3.35 4.02 -1.7 2.04 0 0 Z " fill="#24B2FC" transform="translate(514,576)"/>
<path d="M0 0 C2.31 0 4.62 0 7 0 C7 0.66 7 1.32 7 2 C4.69 2.33 2.38 2.66 0 3 C0 2.01 0 1.02 0 0 Z " fill="#129EFD" transform="translate(338,567)"/>
<path d="M0 0 C0.66 0.99 1.32 1.98 2 3 C1.0409375 3.433125 1.0409375 3.433125 0.0625 3.875 C-2.15206079 4.82823451 -2.15206079 4.82823451 -3 7 C-3.33 6.01 -3.66 5.02 -4 4 C-2.68 2.68 -1.36 1.36 0 0 Z " fill="#1F3D8B" transform="translate(982,477)"/>
<path d="M0 0 C3.93846154 3.32307692 3.93846154 3.32307692 4.25 6.75 C4.1675 7.4925 4.085 8.235 4 9 C0 4.5 0 4.5 0 0 Z " fill="#14317F" transform="translate(736,463)"/>
<path d="M0 0 C0.99 0.33 1.98 0.66 3 1 C4.1875 3.5625 4.1875 3.5625 5 6 C4.01 6 3.02 6 2 6 C0 3 0 3 0 0 Z " fill="#15337D" transform="translate(707,421)"/>
<path d="M0 0 C0.99 0.33 1.98 0.66 3 1 C0.03 3.475 0.03 3.475 -3 6 C-3.66 5.67 -4.32 5.34 -5 5 C-3.35 3.35 -1.7 1.7 0 0 Z " fill="#254087" transform="translate(1057,390)"/>
<path d="M0 0 C0.66 0.66 1.32 1.32 2 2 C0.71937515 3.7074998 -0.61767557 5.37373596 -2 7 C-2.66 7 -3.32 7 -4 7 C-2.92598892 4.08482708 -2.22189824 2.22189824 0 0 Z " fill="#2BD6CE" transform="translate(238,374)"/>
<path d="M0 0 C0.99 0 1.98 0 3 0 C3.99 1.98 4.98 3.96 6 6 C4.125 5.8125 4.125 5.8125 2 5 C0.75 2.4375 0.75 2.4375 0 0 Z " fill="#0F307E" transform="translate(1213,342)"/>
</svg>
